{"glyphs":{":":{"x_min":0,"x_max":231,"ha":231,"o":"m 63 323 l 63 447 l 169 447 l 169 323 z m 63 0 l 63 124 l 169 124 l 169 0 z"},"$":{"x_min":0,"x_max":476,"ha":476,"o":"m 436 152 q 436 81 388 40 q 341 -1 266 -7 l 266 -65 l 218 -65 l 218 -7 q 162 -4 116 11 q 71 26 45 44 l 63 162 l 137 157 l 130 87 q 173 67 218 64 l 218 240 q 158 252 104 276 q 50 301 50 380 q 50 455 102 490 q 153 524 218 528 l 218 593 l 266 593 l 266 528 q 313 524 349 511 q 385 498 411 481 l 420 362 l 346 356 l 335 436 q 302 455 266 458 l 266 307 q 298 300 338 286 q 378 272 407 241 q 436 210 436 152 z m 143 390 q 143 357 164 341 q 186 325 218 317 l 218 459 q 143 449 143 390 z m 343 143 q 343 180 320 199 q 298 218 266 228 l 266 64 q 343 75 343 143 z"},"?":{"x_min":0,"x_max":456,"ha":456,"o":"m 115 459 l 44 465 l 56 595 q 94 624 143 642 q 192 660 238 660 q 318 660 373 623 q 428 586 428 521 q 428 470 398 438 q 367 405 328 382 q 288 358 258 336 q 227 313 227 283 q 227 246 277 246 l 277 188 q 202 182 168 207 q 133 232 133 275 q 133 321 163 349 q 193 377 232 398 q 270 420 300 444 q 330 469 330 508 q 330 580 229 580 q 170 580 129 548 z m 162 0 l 162 111 l 270 111 l 270 0 z"},"<":{"x_min":0,"x_max":404,"ha":404,"o":"m 347 14 l 28 265 l 28 293 l 346 549 l 346 465 l 121 281 l 347 98 z"},"'":{"x_min":0,"x_max":196,"ha":196,"o":"m 136 377 l 60 377 l 54 650 l 142 650 z"},"=":{"x_min":0,"x_max":569,"ha":569,"o":"m 56 359 l 56 423 l 513 423 l 513 359 z m 56 138 l 56 201 l 513 201 l 513 138 z"},"a":{"x_min":0,"x_max":490,"ha":490,"o":"m 78 413 q 119 437 158 446 q 198 456 245 456 q 321 456 366 419 q 410 382 410 305 l 410 98 q 410 54 445 54 q 459 54 472 59 l 473 7 q 445 -10 408 -10 q 327 -10 322 80 l 322 81 q 302 46 264 18 q 227 -10 173 -10 q 127 -10 82 18 q 36 46 36 116 q 36 200 102 226 q 169 253 245 253 q 291 253 322 249 l 322 282 q 322 326 305 357 q 288 388 229 388 q 181 388 148 371 l 131 298 l 60 306 z m 322 172 l 322 198 q 304 200 284 202 q 265 203 245 203 q 199 203 163 188 q 127 173 127 126 q 127 90 150 74 q 172 58 201 58 q 244 58 281 88 q 318 118 322 172 z"},"L":{"x_min":0,"x_max":548,"ha":548,"o":"m 516 0 l 41 0 l 41 79 l 120 79 l 120 571 l 41 571 l 41 650 l 314 650 l 314 571 l 211 571 l 211 79 l 437 79 l 457 221 l 536 214 z"},"3":{"x_min":0,"x_max":502,"ha":502,"o":"m 68 483 q 104 503 152 517 q 200 531 246 531 q 328 531 382 490 q 436 450 436 371 q 436 322 409 282 q 382 241 314 218 l 314 214 q 398 200 430 154 q 462 109 462 52 q 462 -40 400 -90 q 339 -141 240 -141 q 143 -141 94 -98 q 44 -55 35 11 l 107 35 q 118 -3 147 -33 q 176 -63 238 -63 q 312 -63 338 -25 q 365 13 365 59 q 365 116 324 145 q 282 174 186 177 l 186 241 q 279 244 309 283 q 339 322 339 358 q 339 453 231 453 q 211 453 184 448 q 158 442 137 431 l 121 352 l 49 360 z"},";":{"x_min":0,"x_max":238,"ha":238,"o":"m 74 323 l 74 447 l 179 447 l 179 323 z m 165 124 l 110 -97 l 24 -97 l 79 124 z"},"J":{"x_min":0,"x_max":465,"ha":465,"o":"m 430 571 l 361 571 l 361 172 q 361 80 314 35 q 267 -10 185 -10 q 115 -10 74 20 q 34 50 13 96 l 78 145 q 98 104 122 90 q 147 75 177 75 q 226 75 248 102 q 270 128 270 171 l 270 571 l 146 571 l 146 650 l 430 650 z"},"V":{"x_min":0,"x_max":659,"ha":659,"o":"m 658 571 l 598 571 l 364 0 l 295 0 l 62 571 l -1 571 l -1 650 l 243 650 l 243 571 l 162 571 l 332 137 l 338 137 l 505 571 l 421 571 l 421 650 l 658 650 z"},"\"":{"x_min":0,"x_max":376,"ha":376,"o":"m 136 377 l 60 377 l 54 650 l 142 650 z m 316 377 l 240 377 l 234 650 l 322 650 z"},"7":{"x_min":0,"x_max":478,"ha":478,"o":"m 465 473 l 223 -130 l 133 -130 l 368 443 l 112 443 l 112 333 l 31 333 l 31 521 l 453 521 z"},"S":{"x_min":0,"x_max":540,"ha":540,"o":"m 500 186 q 500 91 434 40 q 367 -10 261 -10 q 196 -10 138 6 q 80 21 46 47 l 61 185 l 134 178 l 132 97 q 165 80 196 74 q 226 69 256 69 q 318 69 360 92 q 403 116 403 177 q 403 245 356 266 q 308 288 249 300 q 202 310 156 325 q 111 340 80 374 q 50 409 50 475 q 50 572 115 616 q 180 660 265 660 q 322 660 378 644 q 434 627 465 601 l 471 468 l 398 461 l 387 552 q 358 568 328 574 q 298 580 271 580 q 216 580 182 556 q 147 532 147 485 q 147 430 189 410 q 231 391 282 379 q 324 370 375 354 q 426 339 463 301 q 500 263 500 186 z"},"}":{"x_min":0,"x_max":286,"ha":286,"o":"m 173 271 q 116 280 92 305 q 69 330 69 358 q 69 390 90 438 q 112 486 134 538 q 155 590 155 634 q 155 698 92 698 l 28 698 l 28 761 l 92 761 q 164 761 196 724 q 228 688 228 636 q 228 586 207 532 q 186 477 164 430 q 143 383 143 354 q 143 316 180 304 q 218 293 241 293 l 260 293 l 260 249 l 241 249 q 218 249 180 238 q 143 227 143 189 q 143 160 164 112 q 186 64 207 8 q 228 -47 228 -98 q 228 -154 195 -188 q 162 -222 92 -222 l 28 -222 l 28 -160 l 92 -160 q 155 -160 155 -96 q 155 -52 134 1 q 112 54 90 103 q 69 152 69 185 q 69 213 92 238 q 115 263 173 271 z"},"Z":{"x_min":0,"x_max":581,"ha":581,"o":"m 524 0 l 31 0 l 29 51 l 397 569 l 397 571 l 147 571 l 121 448 l 44 457 l 68 650 l 527 650 l 529 604 l 158 81 l 158 79 l 445 79 l 471 212 l 549 202 z"},"x":{"x_min":0,"x_max":521,"ha":521,"o":"m 505 0 l 300 0 l 300 68 l 351 68 l 258 180 l 165 68 l 211 68 l 211 0 l 18 0 l 18 68 l 79 68 l 215 222 l 75 378 l 20 378 l 20 447 l 230 447 l 230 378 l 178 378 l 267 269 l 359 378 l 313 378 l 313 447 l 496 447 l 496 378 l 446 378 l 311 229 l 453 68 l 505 68 z"},")":{"x_min":0,"x_max":279,"ha":279,"o":"m 83 -183 l 2 -183 q 168 28 168 265 q 168 381 126 498 q 85 614 2 718 l 85 718 q 168 608 206 494 q 244 379 244 265 q 244 150 205 37 q 166 -76 83 -183 z"},"&":{"x_min":0,"x_max":722,"ha":722,"o":"m 430 369 l 701 369 l 701 291 l 608 291 q 591 247 558 198 q 526 149 482 106 q 543 74 598 74 q 638 74 674 93 l 694 18 q 644 -10 585 -10 q 499 -10 408 46 q 369 20 326 5 q 282 -10 235 -10 q 162 -10 101 31 q 40 72 40 154 q 40 219 80 256 q 120 293 169 321 q 130 405 130 477 q 130 553 177 606 q 224 660 315 660 q 389 660 436 622 q 482 585 482 521 q 482 448 420 404 q 358 361 271 318 q 300 267 340 220 q 380 174 427 139 q 488 199 513 291 l 430 291 z m 392 517 q 392 542 374 566 q 356 591 313 591 q 264 591 242 558 q 220 526 220 485 q 220 428 248 363 q 310 397 351 434 q 392 470 392 517 z m 192 276 q 128 234 128 169 q 128 114 167 90 q 206 66 258 66 q 308 66 352 87 q 255 166 192 276 z"},"_":{"x_min":0,"x_max":525,"ha":525,"o":"m 47 -72 l 479 -72 l 479 -133 l 47 -133 z"},"v":{"x_min":0,"x_max":514,"ha":514,"o":"m 506 378 l 454 378 l 292 0 l 227 0 l 57 378 l 5 378 l 5 447 l 218 447 l 218 378 l 151 378 l 264 116 l 270 116 l 368 378 l 307 378 l 307 447 l 506 447 z"},"O":{"x_min":0,"x_max":724,"ha":724,"o":"m 689 325 q 689 187 600 88 q 510 -10 360 -10 q 209 -10 122 89 q 35 188 35 325 q 35 465 125 562 q 215 660 362 660 q 511 660 600 562 q 689 464 689 325 z m 591 323 q 591 436 530 508 q 468 579 362 579 q 252 579 192 506 q 133 432 133 326 q 133 222 192 146 q 250 71 364 71 q 474 71 532 143 q 591 215 591 323 z"},"(":{"x_min":0,"x_max":278,"ha":278,"o":"m 195 718 l 276 718 q 110 507 110 270 q 110 154 152 37 q 193 -80 276 -183 l 193 -183 q 110 -73 72 42 q 34 156 34 270 q 34 386 73 499 q 112 612 195 718 z"},"C":{"x_min":0,"x_max":646,"ha":646,"o":"m 581 56 q 544 24 484 7 q 425 -10 356 -10 q 215 -10 125 83 q 35 176 35 319 q 35 404 71 482 q 107 561 178 610 q 248 660 351 660 q 433 660 490 638 q 546 616 583 583 l 600 451 l 524 443 l 506 536 q 477 556 440 568 q 403 579 354 579 q 254 579 193 509 q 132 439 132 324 q 132 205 196 138 q 259 71 366 71 q 449 71 503 100 l 520 196 l 596 188 z"},"W":{"x_min":0,"x_max":950,"ha":950,"o":"m 943 571 l 889 571 l 714 0 l 644 0 l 478 491 l 474 491 l 314 0 l 243 0 l 57 571 l 1 571 l 1 650 l 236 650 l 236 571 l 154 571 l 279 149 l 284 149 l 424 571 l 363 571 l 363 650 l 597 650 l 597 571 l 538 571 l 678 145 l 683 145 l 798 571 l 710 571 l 710 650 l 943 650 z"},"A":{"x_min":0,"x_max":660,"ha":660,"o":"m 664 0 l 425 0 l 425 79 l 502 79 l 462 187 l 200 187 l 157 79 l 242 79 l 242 0 l 5 0 l 5 79 l 65 79 l 270 571 l 170 571 l 170 650 l 366 650 l 600 79 l 664 79 z m 436 255 l 337 519 l 331 519 l 227 255 z"},"f":{"x_min":0,"x_max":326,"ha":326,"o":"m 262 698 q 293 698 322 691 q 350 684 375 664 l 393 555 l 323 546 l 304 621 q 283 628 257 628 q 186 628 186 536 l 186 447 l 301 447 l 301 380 l 186 380 l 186 68 l 280 68 l 280 0 l 26 0 l 26 68 l 99 68 l 99 380 l 37 380 l 37 447 l 99 447 l 99 526 q 99 602 145 650 q 191 698 262 698 z"},"Q":{"x_min":0,"x_max":731,"ha":731,"o":"m 689 325 q 689 188 603 93 l 676 19 l 619 -38 l 540 41 q 462 -10 360 -10 q 209 -10 122 89 q 35 188 35 325 q 35 465 125 562 q 215 660 362 660 q 511 660 600 562 q 689 464 689 325 z m 591 323 q 591 436 530 508 q 468 579 362 579 q 252 579 192 506 q 133 432 133 326 q 133 222 192 146 q 250 71 364 71 q 432 71 481 103 l 367 219 l 424 276 l 541 157 q 591 222 591 323 z"},"w":{"x_min":0,"x_max":764,"ha":764,"o":"m 755 378 l 707 378 l 578 0 l 512 0 l 382 319 l 377 319 l 251 0 l 188 0 l 55 378 l 9 378 l 9 447 l 227 447 l 227 378 l 149 378 l 231 128 l 236 128 l 360 447 l 416 447 l 550 129 l 556 129 l 625 378 l 550 378 l 550 447 l 755 447 z"},"-":{"x_min":0,"x_max":340,"ha":340,"o":"m 53 269 l 287 269 l 287 194 l 53 194 z"},"E":{"x_min":0,"x_max":590,"ha":590,"o":"m 530 0 l 41 0 l 41 79 l 120 79 l 120 571 l 41 571 l 41 650 l 522 650 l 542 464 l 463 457 l 443 571 l 211 571 l 211 368 l 507 368 l 507 290 l 211 290 l 211 79 l 452 79 l 472 193 l 550 186 z"},"s":{"x_min":0,"x_max":444,"ha":444,"o":"m 409 131 q 409 64 354 27 q 298 -10 213 -10 q 110 -10 38 34 l 52 142 l 121 135 l 119 77 q 139 67 162 63 q 186 59 209 59 q 252 59 286 75 q 321 91 321 125 q 321 158 293 172 q 265 185 224 192 q 182 199 141 210 q 100 220 72 246 q 44 271 44 323 q 44 398 100 427 q 155 456 218 456 q 264 456 304 444 q 345 433 378 415 l 388 307 l 318 299 l 308 369 q 267 388 222 388 q 185 388 161 374 q 137 360 137 328 q 137 297 164 284 q 192 271 232 264 q 273 258 314 247 q 354 236 382 210 q 409 184 409 131 z"},">":{"x_min":0,"x_max":403,"ha":403,"o":"m 375 265 l 56 14 l 56 98 l 283 281 l 57 465 l 57 549 l 375 293 z"},"l":{"x_min":0,"x_max":272,"ha":272,"o":"m 252 0 l 20 0 l 20 68 l 92 68 l 92 619 l 17 619 l 17 688 l 180 688 l 180 68 l 252 68 z"},"8":{"x_min":0,"x_max":538,"ha":538,"o":"m 500 165 q 500 84 433 37 q 366 -10 266 -10 q 166 -10 104 33 q 41 76 41 160 q 41 231 85 268 q 129 305 186 329 q 134 356 96 393 q 57 430 57 491 q 57 565 116 612 q 175 660 269 660 q 359 660 418 616 q 478 572 478 498 q 478 437 438 404 q 399 371 348 348 q 406 320 453 279 q 500 238 500 165 z m 386 488 q 386 540 351 562 q 316 584 269 584 q 218 584 186 562 q 153 539 153 499 q 153 454 194 427 q 235 400 289 375 q 334 397 360 422 q 386 447 386 488 z m 403 162 q 403 215 354 245 q 304 275 242 303 q 196 280 164 253 q 132 226 132 176 q 132 124 169 95 q 206 66 268 66 q 326 66 364 92 q 403 117 403 162 z"},"\\":{"x_min":0,"x_max":397,"ha":397,"o":"m 83 688 l 169 688 l 378 0 l 292 0 z"},"e":{"x_min":0,"x_max":474,"ha":474,"o":"m 443 132 q 436 74 386 32 q 336 -10 250 -10 q 153 -10 93 48 q 33 106 33 216 q 33 320 89 388 q 145 456 244 456 q 336 456 387 399 q 438 342 439 261 q 439 234 433 204 l 125 204 q 131 62 256 62 q 308 62 334 87 q 361 112 370 147 z m 348 263 q 352 307 326 348 q 301 388 242 388 q 187 388 160 352 q 132 315 126 263 z"},"b":{"x_min":0,"x_max":539,"ha":539,"o":"m 506 234 q 506 143 458 66 q 410 -10 305 -10 q 196 -10 152 72 q 151 64 148 36 q 144 8 143 0 l 55 0 q 60 31 65 65 q 70 99 70 132 l 70 619 l -2 619 l -2 688 l 158 688 l 158 357 q 178 397 214 426 q 251 456 315 456 q 398 456 452 398 q 506 340 506 234 z m 414 227 q 414 304 378 344 q 343 384 290 384 q 229 384 194 339 q 159 294 158 245 l 158 195 q 158 139 194 100 q 230 62 285 62 q 350 62 382 110 q 414 158 414 227 z"},"%":{"x_min":0,"x_max":702,"ha":702,"o":"m 178 243 q 113 243 74 280 q 34 316 34 383 q 34 453 76 492 q 117 531 185 531 q 251 531 290 494 q 328 458 328 390 q 328 324 289 284 q 250 243 178 243 z m 597 521 l 393 265 l 193 0 l 100 0 l 332 286 l 504 521 z m 178 302 q 255 302 255 389 q 255 471 183 471 q 148 471 127 451 q 106 431 106 384 q 106 302 178 302 z m 520 -10 q 455 -10 415 26 q 375 63 375 131 q 375 200 416 239 q 458 278 527 278 q 592 278 631 242 q 670 205 670 138 q 670 71 630 30 q 591 -10 520 -10 z m 520 50 q 597 50 597 137 q 597 219 525 219 q 490 219 469 198 q 448 178 448 132 q 448 50 520 50 z"},"m":{"x_min":0,"x_max":866,"ha":866,"o":"m 857 0 l 651 0 l 651 68 l 697 68 l 697 261 q 697 329 672 358 q 646 386 603 386 q 545 386 516 344 q 488 302 487 259 l 487 68 l 559 68 l 559 0 l 353 0 l 353 68 l 399 68 l 399 261 q 399 330 374 358 q 348 386 306 386 q 249 386 220 345 q 191 304 190 261 l 190 68 l 273 68 l 273 0 l 30 0 l 30 68 l 102 68 l 102 378 l 29 378 l 29 447 l 190 447 l 190 368 q 211 407 247 432 q 283 456 335 456 q 386 456 425 430 q 464 405 479 352 q 499 398 538 427 q 577 456 633 456 q 696 456 740 416 q 784 376 784 291 l 784 68 l 857 68 z"},"#":{"x_min":0,"x_max":586,"ha":586,"o":"m 498 521 l 476 408 l 548 408 l 548 339 l 463 339 l 434 187 l 518 187 l 518 118 l 420 118 l 398 0 l 321 0 l 343 118 l 181 118 l 159 0 l 82 0 l 104 118 l 36 118 l 36 187 l 118 187 l 147 339 l 66 339 l 66 408 l 160 408 l 182 521 l 259 521 l 237 408 l 399 408 l 421 521 z m 195 187 l 357 187 l 386 339 l 224 339 z"},",":{"x_min":0,"x_max":207,"ha":207,"o":"m 18 -97 l 73 124 l 158 124 l 103 -97 z"},"n":{"x_min":0,"x_max":579,"ha":579,"o":"m 569 0 l 337 0 l 337 68 l 409 68 l 409 261 q 409 329 383 358 q 357 386 314 386 q 258 386 225 349 q 192 312 190 263 l 190 68 l 262 68 l 262 0 l 30 0 l 30 68 l 102 68 l 102 378 l 27 378 l 27 447 l 190 447 l 190 371 q 237 456 342 456 q 407 456 452 416 q 497 376 497 291 l 497 68 l 569 68 z"},"h":{"x_min":0,"x_max":566,"ha":566,"o":"m 556 0 l 323 0 l 323 68 l 396 68 l 396 261 q 396 329 369 358 q 342 386 298 386 q 244 386 211 350 q 178 313 176 266 l 176 68 l 249 68 l 249 0 l 17 0 l 17 68 l 89 68 l 89 619 l 17 619 l 17 688 l 176 688 l 176 370 q 225 456 329 456 q 394 456 439 416 q 484 376 484 291 l 484 68 l 556 68 z"},"z":{"x_min":0,"x_max":468,"ha":468,"o":"m 418 0 l 38 0 l 32 50 l 301 378 l 113 378 l 98 295 l 31 302 l 44 447 l 413 447 l 418 397 l 146 68 l 351 68 l 373 153 l 443 144 z"},"B":{"x_min":0,"x_max":609,"ha":609,"o":"m 574 187 q 574 109 520 54 q 465 0 356 0 l 41 0 l 41 79 l 120 79 l 120 571 l 41 571 l 41 650 l 352 650 q 448 650 498 608 q 548 565 548 495 q 548 443 517 404 q 486 366 435 356 l 435 352 q 505 342 540 296 q 574 250 574 187 z m 451 473 q 451 529 419 550 q 387 571 333 571 l 211 571 l 211 371 l 328 371 q 451 371 451 473 z m 476 191 q 476 298 356 298 l 211 298 l 211 79 l 337 79 q 402 79 439 106 q 476 132 476 191 z"},"K":{"x_min":0,"x_max":651,"ha":651,"o":"m 644 0 l 395 0 l 395 79 l 467 79 l 311 292 l 211 292 l 211 79 l 280 79 l 280 0 l 41 0 l 41 79 l 120 79 l 120 571 l 41 571 l 41 650 l 282 650 l 282 571 l 211 571 l 211 368 l 310 368 l 462 572 l 391 572 l 391 651 l 632 651 l 632 572 l 558 572 l 381 339 l 573 79 l 644 79 z"},"R":{"x_min":0,"x_max":623,"ha":623,"o":"m 613 0 l 472 0 l 335 265 l 211 265 l 211 79 l 293 79 l 293 0 l 41 0 l 41 79 l 120 79 l 120 571 l 41 571 l 41 650 l 326 650 q 447 650 503 598 q 559 547 559 462 q 559 398 524 350 q 488 302 424 283 l 532 79 l 613 79 z m 462 460 q 462 519 428 545 q 393 571 312 571 l 211 571 l 211 339 l 313 339 q 395 339 428 371 q 462 403 462 460 z"},"T":{"x_min":0,"x_max":629,"ha":629,"o":"m 608 446 l 528 439 l 508 571 l 360 571 l 360 79 l 472 79 l 472 0 l 160 0 l 160 79 l 269 79 l 269 571 l 120 571 l 100 439 l 21 446 l 40 650 l 588 650 z"},"P":{"x_min":0,"x_max":581,"ha":581,"o":"m 555 448 q 555 343 490 289 q 426 235 330 235 l 211 235 l 211 79 l 319 79 l 319 0 l 41 0 l 41 79 l 120 79 l 120 571 l 41 571 l 41 650 l 324 650 q 445 650 500 592 q 555 533 555 448 z m 458 446 q 458 504 424 538 q 390 571 314 571 l 211 571 l 211 313 l 316 313 q 458 313 458 446 z"},"|":{"x_min":0,"x_max":236,"ha":236,"o":"m 156 730 l 156 -80 l 80 -80 l 80 730 z"},"t":{"x_min":0,"x_max":379,"ha":379,"o":"m 378 126 q 359 -10 228 -10 q 159 -10 120 28 q 82 65 82 132 l 82 380 l 13 380 l 13 447 l 82 447 l 82 588 l 169 588 l 169 447 l 340 447 l 340 380 l 169 380 l 169 145 q 169 65 238 65 q 260 65 282 80 q 304 94 313 147 z"},"M":{"x_min":0,"x_max":887,"ha":887,"o":"m 850 571 l 766 571 l 766 79 l 844 79 l 844 0 l 605 0 l 605 79 l 675 79 l 675 444 l 671 444 l 467 39 l 422 39 l 211 450 l 207 450 l 207 79 l 280 79 l 280 0 l 43 0 l 43 79 l 121 79 l 121 571 l 37 571 l 37 650 l 199 650 l 446 172 l 450 172 l 687 650 l 850 650 z"},"g":{"x_min":0,"x_max":554,"ha":554,"o":"m 538 378 l 469 378 l 469 11 q 469 -95 410 -159 q 352 -223 242 -223 q 172 -223 114 -192 q 56 -160 35 -90 l 103 -55 q 122 -104 161 -127 q 200 -150 244 -150 q 304 -150 343 -108 q 382 -66 382 13 l 382 88 q 362 50 325 23 q 288 -4 226 -4 q 146 -4 90 52 q 33 107 33 213 q 33 305 83 380 q 133 456 234 456 q 338 456 382 377 l 382 447 l 538 447 z m 382 202 l 382 260 q 382 316 346 350 q 310 384 259 384 q 193 384 161 336 q 129 289 129 219 q 129 142 164 105 q 198 68 248 68 q 308 68 344 110 q 380 152 382 202 z"},"j":{"x_min":0,"x_max":255,"ha":255,"o":"m 95 552 l 95 655 l 187 655 l 187 552 z m 187 -5 q 187 -132 135 -182 q 83 -232 -14 -223 l -17 -161 q 10 -161 37 -152 q 64 -143 82 -110 q 99 -77 99 -5 l 99 378 l 9 378 l 9 447 l 187 447 z"},"i":{"x_min":0,"x_max":286,"ha":286,"o":"m 100 552 l 100 655 l 191 655 l 191 552 z m 266 0 l 33 0 l 33 68 l 106 68 l 106 378 l 30 378 l 30 447 l 194 447 l 194 68 l 266 68 z"},"y":{"x_min":0,"x_max":517,"ha":517,"o":"m 508 378 l 458 378 l 304 0 l 249 -143 l 320 -143 l 320 -213 l 88 -213 l 88 -143 l 167 -143 l 219 -1 l 58 378 l 7 378 l 7 447 l 220 447 l 220 378 l 152 378 l 267 106 l 273 106 l 372 378 l 309 378 l 309 447 l 508 447 z"},"@":{"x_min":0,"x_max":902,"ha":902,"o":"m 296 409 q 330 432 368 444 q 407 456 458 456 q 541 456 584 416 q 626 376 626 305 l 626 112 q 626 83 644 67 q 662 51 690 51 q 748 51 768 114 q 787 178 787 245 q 787 376 740 451 q 692 526 618 556 q 544 587 464 587 q 306 587 208 488 q 110 390 110 225 q 110 104 161 24 q 212 -55 294 -95 q 375 -135 467 -135 q 521 -135 578 -121 q 634 -107 679 -76 l 708 -130 q 659 -162 594 -182 q 529 -202 456 -202 q 340 -202 244 -150 q 149 -98 93 -4 q 37 91 37 217 q 37 338 90 438 q 144 537 239 596 q 334 654 460 654 q 551 654 644 617 q 736 580 798 496 q 861 413 861 273 q 861 208 844 143 q 826 78 784 34 q 743 -10 671 -10 q 618 -10 583 16 q 548 42 541 85 q 521 48 483 19 q 445 -10 390 -10 q 344 -10 297 18 q 250 46 250 116 q 250 172 282 201 q 314 230 363 240 q 412 251 462 251 q 481 251 501 250 q 521 249 538 248 l 538 282 q 538 336 519 364 q 500 391 451 391 q 403 391 364 367 l 343 292 l 277 300 z m 538 200 q 500 205 463 205 q 416 205 380 190 q 343 175 343 126 q 343 90 366 73 q 388 56 419 56 q 462 56 500 88 q 537 121 538 177 z"},".":{"x_min":0,"x_max":216,"ha":216,"o":"m 51 0 l 51 124 l 165 124 l 165 0 z"},"p":{"x_min":0,"x_max":556,"ha":556,"o":"m 523 235 q 523 143 474 66 q 425 -10 318 -10 q 219 -10 174 63 l 174 -143 l 271 -143 l 271 -213 l 14 -213 l 14 -143 l 87 -143 l 87 378 l 11 378 l 11 447 l 174 447 l 174 356 q 194 396 231 426 q 268 456 330 456 q 416 456 470 398 q 523 339 523 235 z m 431 227 q 431 304 396 344 q 360 384 304 384 q 247 384 212 339 q 177 294 175 242 l 174 190 q 174 134 210 98 q 246 62 299 62 q 366 62 398 110 q 431 157 431 227 z"},"X":{"x_min":0,"x_max":642,"ha":642,"o":"m 634 0 l 396 0 l 396 79 l 467 79 l 316 275 l 174 79 l 244 79 l 244 0 l 6 0 l 6 79 l 74 79 l 270 335 l 82 571 l 18 571 l 18 650 l 251 650 l 251 571 l 187 571 l 324 395 l 453 571 l 393 571 l 393 650 l 623 650 l 623 571 l 554 571 l 370 337 l 574 79 l 634 79 z"},"*":{"x_min":0,"x_max":415,"ha":415,"o":"m 374 549 l 259 486 l 374 424 l 339 371 l 234 439 l 240 326 l 175 326 l 180 439 l 76 371 l 42 424 l 157 486 l 42 549 l 76 603 l 181 533 l 175 650 l 240 650 l 234 533 l 340 603 z"},"Y":{"x_min":0,"x_max":622,"ha":622,"o":"m 618 571 l 556 571 l 357 250 l 357 79 l 470 79 l 470 0 l 159 0 l 159 79 l 267 79 l 267 251 l 61 571 l -2 571 l -2 650 l 244 650 l 244 571 l 166 571 l 314 332 l 319 332 l 463 571 l 382 571 l 382 650 l 618 650 z"},"c":{"x_min":0,"x_max":464,"ha":464,"o":"m 436 155 q 428 96 384 43 q 339 -10 242 -10 q 148 -10 90 48 q 33 107 33 216 q 33 317 90 386 q 147 456 249 456 q 291 456 330 446 q 369 436 404 411 l 422 295 l 351 287 l 335 362 q 297 384 248 384 q 185 384 155 338 q 125 293 125 221 q 125 146 157 104 q 189 62 251 62 q 344 62 362 170 z"},"!":{"x_min":0,"x_max":246,"ha":246,"o":"m 175 650 l 155 203 l 90 203 l 71 650 z m 71 0 l 71 111 l 178 111 l 178 0 z"},"/":{"x_min":0,"x_max":350,"ha":350,"o":"m 329 688 l 120 0 l 34 0 l 243 688 z"},"[":{"x_min":0,"x_max":287,"ha":287,"o":"m 79 -223 l 79 760 l 269 760 l 269 698 l 155 698 l 155 -161 l 269 -161 l 269 -223 z"},"6":{"x_min":0,"x_max":533,"ha":533,"o":"m 489 208 q 489 116 436 53 q 382 -10 273 -10 q 143 -10 93 80 q 43 170 43 308 q 43 454 98 557 q 152 660 289 660 q 409 660 477 572 l 424 518 q 373 582 287 582 q 204 582 173 518 q 142 454 140 329 q 139 327 139 318 q 139 310 139 307 q 155 345 194 376 q 233 408 306 408 q 406 408 448 348 q 489 287 489 208 z m 396 204 q 396 265 370 298 q 343 332 280 332 q 209 332 178 291 q 147 250 143 206 q 151 144 180 108 q 208 71 275 71 q 340 71 368 106 q 396 142 396 204 z"},"r":{"x_min":0,"x_max":426,"ha":426,"o":"m 293 454 q 340 454 373 430 l 391 305 l 322 297 l 305 374 q 288 381 270 381 q 236 381 213 352 q 190 324 190 278 l 190 68 l 286 68 l 286 0 l 30 0 l 30 68 l 102 68 l 102 378 l 27 378 l 27 447 l 184 447 l 184 365 q 197 403 224 428 q 252 454 293 454 z"},"2":{"x_min":0,"x_max":521,"ha":521,"o":"m 74 489 q 117 510 167 520 q 217 531 259 531 q 363 531 406 482 q 449 432 449 377 q 449 309 400 254 q 351 199 282 156 q 214 112 156 79 l 403 79 l 411 152 l 485 146 l 473 0 l 53 0 l 45 71 q 180 161 266 228 q 352 294 352 365 q 352 453 242 453 q 222 453 194 448 q 166 442 143 432 l 127 358 l 56 366 z"},"{":{"x_min":0,"x_max":286,"ha":286,"o":"m 113 267 q 170 258 194 233 q 217 208 217 180 q 217 148 196 100 q 174 52 152 0 q 131 -52 131 -96 q 131 -160 194 -160 l 258 -160 l 258 -223 l 194 -223 q 122 -223 90 -186 q 58 -150 58 -98 q 58 -48 79 6 q 100 61 122 108 q 143 155 143 184 q 143 222 106 234 q 68 245 45 245 l 26 245 l 26 289 l 45 289 q 68 289 106 300 q 143 311 143 349 q 143 378 122 426 q 100 474 79 530 q 58 585 58 636 q 58 692 91 726 q 124 760 194 760 l 258 760 l 258 698 l 194 698 q 131 698 131 634 q 131 590 152 537 q 174 484 196 435 q 217 386 217 353 q 217 325 194 300 q 171 275 113 267 z"},"9":{"x_min":0,"x_max":532,"ha":532,"o":"m 43 313 q 43 404 96 468 q 150 531 260 531 q 389 531 439 441 q 489 351 489 213 q 489 67 434 -36 q 380 -139 243 -139 q 124 -139 55 -51 l 108 3 q 159 -61 246 -61 q 328 -61 359 4 q 390 68 393 192 l 393 214 q 377 176 338 144 q 299 113 226 113 q 126 113 84 174 q 43 234 43 313 z m 136 317 q 136 256 162 222 q 189 189 252 189 q 324 189 354 230 q 385 271 389 315 q 382 377 353 414 q 324 450 258 450 q 192 450 164 414 q 136 379 136 317 z"}," ":{"x_min":0,"x_max":216,"ha":216,"o":""},"I":{"x_min":0,"x_max":331,"ha":331,"o":"m 289 0 l 41 0 l 41 79 l 120 79 l 120 571 l 41 571 l 41 650 l 289 650 l 289 571 l 211 571 l 211 79 l 289 79 z"},"H":{"x_min":0,"x_max":757,"ha":757,"o":"m 715 0 l 468 0 l 468 79 l 546 79 l 546 292 l 211 292 l 211 79 l 289 79 l 289 0 l 41 0 l 41 79 l 120 79 l 120 571 l 41 571 l 41 650 l 289 650 l 289 571 l 211 571 l 211 369 l 546 369 l 546 571 l 468 571 l 468 650 l 715 650 l 715 571 l 637 571 l 637 79 l 715 79 z"},"4":{"x_min":0,"x_max":548,"ha":548,"o":"m 421 -131 l 330 -131 l 330 32 l 28 32 l 18 109 l 241 521 l 421 521 l 421 109 l 524 109 l 515 32 l 421 32 z m 330 109 l 330 443 l 285 443 l 105 109 z"},"~":{"x_min":0,"x_max":598,"ha":598,"o":"m 406 193 q 361 193 326 210 q 291 228 258 246 q 225 263 185 263 q 162 263 138 252 q 115 240 89 199 l 39 232 q 68 289 107 316 q 146 343 188 343 q 229 343 262 326 q 295 308 328 290 q 362 273 405 273 q 435 273 458 288 q 480 304 506 348 l 562 311 q 498 193 406 193 z"},"D":{"x_min":0,"x_max":703,"ha":703,"o":"m 667 326 q 667 181 580 90 q 493 0 339 0 l 41 0 l 41 78 l 120 78 l 120 572 l 41 572 l 41 650 l 334 650 q 495 650 581 559 q 667 468 667 326 z m 570 325 q 570 440 509 506 q 448 572 332 572 l 211 572 l 211 78 l 332 78 q 448 78 509 142 q 570 207 570 325 z"},"^":{"x_min":0,"x_max":457,"ha":457,"o":"m 198 654 l 254 654 l 421 371 l 340 371 l 226 569 l 118 371 l 37 371 z"},"0":{"x_min":0,"x_max":576,"ha":576,"o":"m 534 257 q 534 130 468 60 q 403 -10 285 -10 q 167 -10 104 60 q 42 130 42 255 q 42 375 105 453 q 168 531 289 531 q 415 531 474 452 q 534 373 534 257 z m 437 262 q 437 451 289 451 q 140 451 140 261 q 140 70 288 70 q 358 70 398 116 q 437 162 437 262 z"},"F":{"x_min":0,"x_max":561,"ha":561,"o":"m 539 459 l 459 451 l 439 571 l 211 571 l 211 339 l 502 339 l 502 261 l 211 261 l 211 79 l 323 79 l 323 0 l 41 0 l 41 79 l 120 79 l 120 571 l 41 571 l 41 650 l 518 650 z"},"`":{"x_min":0,"x_max":440,"ha":440,"o":"m 358 553 l 333 516 l 154 617 l 202 688 z"},"k":{"x_min":0,"x_max":529,"ha":529,"o":"m 518 0 l 301 0 l 301 68 l 361 68 l 252 202 l 176 202 l 176 68 l 234 68 l 234 0 l 17 0 l 17 68 l 89 68 l 89 619 l 14 619 l 14 688 l 176 688 l 176 266 l 255 266 l 347 378 l 282 378 l 282 447 l 495 447 l 495 378 l 433 378 l 320 242 l 462 68 l 518 68 z"},"u":{"x_min":0,"x_max":568,"ha":568,"o":"m 553 0 l 390 0 l 390 80 q 344 -10 239 -10 q 174 -10 128 30 q 83 70 83 156 l 83 378 l 11 378 l 11 447 l 171 447 l 171 185 q 171 117 198 89 q 224 61 269 61 q 323 61 356 100 q 389 140 390 188 l 390 378 l 303 378 l 303 447 l 478 447 l 478 68 l 553 68 z"},"]":{"x_min":0,"x_max":287,"ha":287,"o":"m 207 -223 l 17 -223 l 17 -161 l 131 -161 l 131 698 l 17 698 l 17 760 l 207 760 z"},"U":{"x_min":0,"x_max":718,"ha":718,"o":"m 684 571 l 622 571 l 622 267 q 622 198 598 134 q 574 71 516 30 q 458 -10 357 -10 q 211 -10 154 70 q 98 151 98 256 l 98 571 l 34 571 l 34 650 l 275 650 l 275 571 l 189 571 l 189 259 q 189 172 230 122 q 272 71 361 71 q 536 71 536 267 l 536 571 l 449 571 l 449 650 l 684 650 z"},"o":{"x_min":0,"x_max":516,"ha":516,"o":"m 484 223 q 484 120 420 55 q 357 -10 253 -10 q 151 -10 92 53 q 32 116 32 219 q 32 317 89 387 q 146 457 259 457 q 372 457 428 388 q 484 318 484 223 z m 392 226 q 392 300 356 343 q 319 386 257 386 q 192 386 158 340 q 123 295 123 224 q 123 156 156 108 q 190 61 256 61 q 321 61 356 108 q 392 154 392 226 z"},"N":{"x_min":0,"x_max":744,"ha":744,"o":"m 712 571 l 634 571 l 634 0 l 579 0 l 210 483 l 206 483 l 206 79 l 305 79 l 305 0 l 46 0 l 46 79 l 120 79 l 120 571 l 36 571 l 36 650 l 186 650 l 544 182 l 548 182 l 548 571 l 451 571 l 451 650 l 712 650 z"},"+":{"x_min":0,"x_max":415,"ha":415,"o":"m 34 249 l 34 313 l 179 313 l 179 455 l 242 455 l 242 313 l 381 313 l 381 249 l 242 249 l 242 108 l 179 108 l 179 249 z"},"G":{"x_min":0,"x_max":689,"ha":689,"o":"m 662 263 l 617 263 l 617 0 l 547 0 l 536 84 q 508 43 456 16 q 405 -10 335 -10 q 201 -10 118 86 q 36 182 36 322 q 36 462 123 561 q 210 660 358 660 q 436 660 496 638 q 557 616 592 583 l 610 456 l 535 448 l 516 536 q 489 553 450 566 q 411 579 359 579 q 258 579 196 510 q 133 440 133 324 q 133 207 193 139 q 253 71 351 71 q 434 71 480 116 q 526 160 526 221 l 526 263 l 379 263 l 379 342 l 662 342 z"},"q":{"x_min":0,"x_max":539,"ha":539,"o":"m 535 -213 l 285 -213 l 285 -143 l 382 -143 l 382 89 q 362 49 324 20 q 287 -10 225 -10 q 141 -10 87 48 q 33 105 33 211 q 33 302 81 379 q 129 456 234 456 q 345 456 388 370 q 390 389 392 408 q 395 428 399 447 l 485 447 q 478 410 474 374 q 469 339 469 302 l 469 -143 l 535 -143 z m 382 206 l 382 257 q 382 313 344 348 q 307 384 254 384 q 190 384 158 336 q 125 288 125 219 q 125 141 160 102 q 196 62 248 62 q 308 62 344 109 q 380 156 382 206 z"},"d":{"x_min":0,"x_max":555,"ha":555,"o":"m 541 0 l 382 0 l 382 88 q 361 48 324 19 q 286 -10 224 -10 q 137 -10 85 50 q 33 109 33 213 q 33 305 80 380 q 128 456 234 456 q 337 456 382 376 l 382 619 l 279 619 l 279 688 l 469 688 l 469 68 l 541 68 z m 382 206 l 382 260 q 380 316 344 350 q 308 384 257 384 q 192 384 158 336 q 125 288 125 218 q 125 142 161 102 q 197 62 250 62 q 307 62 344 109 q 380 156 382 206 z"},"1":{"x_min":0,"x_max":391,"ha":391,"o":"m 371 0 l 50 0 l 50 79 l 168 79 l 168 442 l 50 442 l 50 521 l 259 521 l 259 79 l 371 79 z"},"5":{"x_min":0,"x_max":515,"ha":515,"o":"m 478 66 q 478 -37 417 -88 q 356 -140 255 -140 q 160 -140 110 -98 q 59 -55 49 11 l 122 35 q 132 -6 163 -34 q 194 -63 250 -63 q 318 -63 349 -28 q 380 8 380 64 q 380 149 323 172 q 266 196 190 196 q 170 196 148 195 q 125 194 104 192 l 74 221 l 74 521 l 447 521 l 458 370 l 382 363 l 370 443 l 158 443 l 158 271 q 169 272 181 272 q 193 272 204 272 q 274 272 336 256 q 399 240 438 196 q 478 151 478 66 z"}}}
